<svg width="29" height="30" viewBox="0 0 29 30" fill="none" xmlns="http://www.w3.org/2000/svg">
<path d="M24.2898 8.67229C24.2898 9.32479 23.9394 9.91687 23.3836 10.219L21.2811 11.3548L19.4928 12.3094L15.7832 14.3152C15.3844 14.5327 14.9494 14.6415 14.5023 14.6415C14.0553 14.6415 13.6203 14.5327 13.2215 14.3152L5.62109 10.219C5.06526 9.91687 4.71484 9.32479 4.71484 8.67229C4.71484 8.01979 5.06526 7.42771 5.62109 7.12562L8.00151 5.84479L9.89859 4.81771L13.2215 3.02937C14.019 2.59437 14.9857 2.59437 15.7832 3.02937L23.3836 7.12562C23.9394 7.42771 24.2898 8.01979 24.2898 8.67229Z" fill="#36204D"/>
<path d="M11.9649 15.7433L4.89615 12.215C4.3524 11.9371 3.72406 11.9733 3.20448 12.2875C2.6849 12.6017 2.38281 13.1575 2.38281 13.7617V20.4437C2.38281 21.6037 3.02323 22.6429 4.0624 23.1625L11.1311 26.6908C11.3728 26.8117 11.6386 26.8721 11.9045 26.8721C12.2186 26.8721 12.5328 26.7875 12.8107 26.6062C13.3303 26.2921 13.6324 25.7362 13.6324 25.1321V18.45C13.6445 17.3021 13.0041 16.2629 11.9649 15.7433Z" fill="#36204D"/>
<path d="M26.621 13.758V20.44C26.621 21.588 25.9806 22.6271 24.9415 23.1467L17.8727 26.6871C17.631 26.808 17.3652 26.8684 17.0994 26.8684C16.7852 26.8684 16.471 26.7838 16.181 26.6025C15.6735 26.2884 15.3594 25.7325 15.3594 25.1284V18.4584C15.3594 17.2984 15.9998 16.2592 17.039 15.7396L19.6369 14.4467L21.4494 13.5405L24.1077 12.2113C24.6515 11.9334 25.2798 11.9575 25.7994 12.2838C26.3069 12.598 26.621 13.1538 26.621 13.758Z" fill="#36204D"/>
<path d="M21.2796 11.3535L19.4912 12.3081L8 5.84349L9.89708 4.81641L20.9896 11.0756C21.1104 11.1481 21.2071 11.2447 21.2796 11.3535Z" fill="#36204D"/>
<path d="M21.4492 13.5391V16.282C21.4492 16.7774 21.0384 17.1882 20.543 17.1882C20.0476 17.1882 19.6367 16.7774 19.6367 16.282V14.4453L21.4492 13.5391Z" fill="#36204D"/>
</svg>
