<svg width="29" height="30" viewBox="0 0 29 30" fill="none" xmlns="http://www.w3.org/2000/svg">
<path d="M14.5365 3.32422C12.1802 3.32422 9.98104 4.00089 8.13229 5.16089L16.4215 13.4621L16.4335 10.1513C16.4335 9.65588 16.8444 9.24505 17.3398 9.24505C17.8473 9.24505 18.246 9.65588 18.246 10.1513L18.234 15.6492C18.234 16.0238 18.0044 16.3501 17.666 16.483C17.5573 16.5313 17.4365 16.5555 17.3277 16.5555C17.086 16.5555 16.8565 16.4588 16.6873 16.2896L6.79104 6.3813C6.74271 6.33297 6.70646 6.28464 6.67021 6.2363C4.08437 8.45964 2.45312 11.7463 2.45312 15.4076C2.45312 22.0776 7.86646 27.4909 14.5365 27.4909C16.8927 27.4909 19.0919 26.8142 20.9406 25.6542L12.6515 17.353L12.6394 20.6638C12.6394 21.1592 12.2285 21.57 11.7331 21.57C11.2256 21.57 10.8269 21.1592 10.8269 20.6638L10.839 15.1659C10.839 14.7913 11.0685 14.4651 11.4069 14.3321C11.7331 14.1871 12.1319 14.2596 12.3856 14.5255L22.2819 24.4338C22.3302 24.4821 22.3665 24.5305 22.4027 24.5788C24.9885 22.3555 26.6198 19.0688 26.6198 15.4076C26.6198 8.73755 21.2065 3.32422 14.5365 3.32422Z" fill="#36204D"/>
</svg>
