<svg width="29" height="31" viewBox="0 0 29 31" fill="none" xmlns="http://www.w3.org/2000/svg">
<path d="M18.1244 30.3571C17.7982 30.3571 17.4961 30.1759 17.339 29.898C17.1819 29.608 17.1819 29.2696 17.3511 28.9796L18.6198 26.8651C18.8736 26.4301 19.4415 26.2971 19.8644 26.5509C20.2994 26.8046 20.4323 27.3605 20.1786 27.7955L19.8523 28.3392C23.1873 27.5538 25.6886 24.5571 25.6886 20.9805C25.6886 20.4851 26.0994 20.0742 26.5948 20.0742C27.0903 20.0742 27.5011 20.4851 27.5011 20.9805C27.489 26.1521 23.284 30.3571 18.1244 30.3571Z" fill="#36204D"/>
<path d="M2.41797 14.6536C1.92255 14.6536 1.51172 14.2428 1.51172 13.7474C1.51172 8.58781 5.71672 4.38281 10.8763 4.38281C11.2026 4.38281 11.5046 4.56406 11.6617 4.84198C11.8188 5.13198 11.8188 5.47031 11.6496 5.76031L10.3809 7.8749C10.1271 8.29781 9.5713 8.44281 9.1363 8.17698C8.71339 7.92323 8.56838 7.3674 8.83422 6.9324L9.16047 6.38865C5.81339 7.17406 3.32422 10.1707 3.32422 13.7474C3.32422 14.2428 2.91339 14.6536 2.41797 14.6536Z" fill="#36204D"/>
<path d="M17.8846 18.1329V21.6854C17.8846 24.6458 16.7005 25.8299 13.7401 25.8299H10.1876C7.22714 25.8299 6.04297 24.6458 6.04297 21.6854V18.1329C6.04297 15.1724 7.22714 13.9883 10.1876 13.9883H13.7401C16.7005 13.9883 17.8846 15.1724 17.8846 18.1329Z" fill="#36204D"/>
<path d="M18.8139 8.91406H15.2614C12.3493 8.91406 11.1652 10.0741 11.1289 12.9257H13.7389C17.2914 12.9257 18.9347 14.5811 18.9347 18.1216V20.7316C21.7985 20.6953 22.9464 19.5111 22.9464 16.5991V13.0586C22.9585 10.0982 21.7743 8.91406 18.8139 8.91406Z" fill="#36204D"/>
</svg>
