<svg width="29" height="30" viewBox="0 0 29 30" fill="none" xmlns="http://www.w3.org/2000/svg">
<path d="M6.04036 18.9961C3.36995 18.9961 1.20703 21.159 1.20703 23.8294C1.20703 24.7357 1.46078 25.5936 1.90786 26.3186C2.74161 27.7203 4.2762 28.6628 6.04036 28.6628C7.80453 28.6628 9.33912 27.7203 10.1729 26.3186C10.6199 25.5936 10.8737 24.7357 10.8737 23.8294C10.8737 21.159 8.71078 18.9961 6.04036 18.9961ZM7.84078 24.7115H6.94661V25.654C6.94661 26.1494 6.53578 26.5603 6.04036 26.5603C5.54495 26.5603 5.13411 26.1494 5.13411 25.654V24.7115H4.23995C3.74453 24.7115 3.3337 24.3007 3.3337 23.8053C3.3337 23.3098 3.74453 22.899 4.23995 22.899H5.13411V22.0411C5.13411 21.5457 5.54495 21.1348 6.04036 21.1348C6.53578 21.1348 6.94661 21.5457 6.94661 22.0411V22.899H7.84078C8.3362 22.899 8.74703 23.3098 8.74703 23.8053C8.74703 24.3007 8.34828 24.7115 7.84078 24.7115Z" fill="#36204D"/>
<path d="M25.9805 15.9766H22.9596C21.6305 15.9766 20.543 17.0641 20.543 18.3932C20.543 19.7224 21.6305 20.8099 22.9596 20.8099H25.9805C26.3188 20.8099 26.5846 20.5441 26.5846 20.2057V16.5807C26.5846 16.2424 26.3188 15.9766 25.9805 15.9766Z" fill="#36204D"/>
<path d="M19.973 7.39742C20.3355 7.74784 20.0334 8.29159 19.5259 8.29159L9.5209 8.2795C8.9409 8.2795 8.6509 7.57867 9.06173 7.16784L11.1763 5.04117C12.9646 3.26492 15.8526 3.26492 17.6409 5.04117L19.9246 7.34909C19.9367 7.36117 19.9609 7.38534 19.973 7.39742Z" fill="#36204D"/>
<path d="M26.4255 23.4173C25.6884 25.9065 23.5617 27.4531 20.6617 27.4531H12.8076C12.3363 27.4531 12.0342 26.9335 12.2276 26.4985C12.5901 25.6527 12.8197 24.6981 12.8197 23.8281C12.8197 20.1669 9.83508 17.1823 6.17383 17.1823C5.2555 17.1823 4.36133 17.3756 3.53966 17.7381C3.09258 17.9315 2.54883 17.6294 2.54883 17.146V15.3698C2.54883 12.0831 4.5305 9.78729 7.61175 9.40062C7.91383 9.35229 8.24008 9.32812 8.57841 9.32812H20.6617C20.9759 9.32812 21.278 9.34021 21.568 9.38854C24.0088 9.66646 25.773 11.1527 26.4255 13.364C26.5463 13.7627 26.2563 14.1615 25.8455 14.1615H23.0784C20.4563 14.1615 18.378 16.554 18.9459 19.2727C19.3447 21.2544 21.1813 22.6198 23.1992 22.6198H25.8455C26.2684 22.6198 26.5463 23.0306 26.4255 23.4173Z" fill="#36204D"/>
</svg>
